<?xml version="1.0" encoding="UTF-8"?>
<svg version="1.1" xmlns="http://www.w3.org/2000/svg" width="288" height="159">
<path d="M0 0 C95.04 0 190.08 0 288 0 C288 52.47 288 104.94 288 159 C192.96 159 97.92 159 0 159 C0 106.53 0 54.06 0 0 Z " fill="#161715" transform="translate(0,0)"/>
<path d="M0 0 C0.66 0 1.32 0 2 0 C2 16.83 2 33.66 2 51 C-93.04 51 -188.08 51 -286 51 C-286 34.83 -286 18.66 -286 2 C-282.44646759 2.00444122 -278.89293518 2.00888245 -275.23171997 2.01345825 C-242.67527379 2.05322257 -210.11883098 2.08309742 -177.5623659 2.10213066 C-173.29890144 2.10463219 -169.03543703 2.10722083 -164.77197266 2.10986328 C-163.92316268 2.1103879 -163.07435271 2.11091252 -162.19982122 2.11145304 C-148.44039521 2.12016518 -134.68098584 2.13593959 -120.92156972 2.15430559 C-106.81222627 2.17298217 -92.70289156 2.18411196 -78.59353626 2.18817699 C-69.88124624 2.19092672 -61.16900327 2.19962394 -52.45672773 2.21583293 C-46.48940723 2.22637217 -40.52211119 2.22960761 -34.55478205 2.22700275 C-31.10749837 2.22571667 -27.66029712 2.22774338 -24.21302795 2.23841095 C-20.48270068 2.24828237 -16.75257881 2.24599755 -13.02224731 2.24050903 C-11.37344186 2.24924756 -11.37344186 2.24924756 -9.69132721 2.25816262 C-8.69806077 2.25418052 -7.70479433 2.25019842 -6.68142891 2.24609566 C-5.81946376 2.2468551 -4.95749861 2.24761454 -4.0694133 2.24839699 C-1.7775885 2.1894527 -1.7775885 2.1894527 0 0 Z " fill="#1B1516" transform="translate(286,108)"/>
<path d="M0 0 C4.66888119 1.82585476 7.75361083 4.17762796 10.57910156 8.30883789 C12.69914756 13.81622198 12.46777515 19.10316799 12.46875 24.95703125 C12.48017029 26.84333504 12.48017029 26.84333504 12.49182129 28.76774597 C12.50261353 31.42499477 12.50685235 34.08135253 12.50097656 36.73852539 C12.49509343 40.12122619 12.52562744 43.50248523 12.56609344 46.88490772 C12.59837387 50.13808656 12.59385398 53.3912172 12.59375 56.64453125 C12.61014526 57.84793655 12.62654053 59.05134186 12.64343262 60.29121399 C12.58329869 67.66565688 11.59721762 73.08514239 7 79 C1.59337517 83.7164174 -3.59056781 83.44133639 -10.59765625 83.43359375 C-15.87459506 82.76110212 -19.05512339 80.96635108 -22.75 77.1875 C-27.45155135 70.52696892 -27.30744193 64.23535334 -27.30078125 56.35546875 C-27.30506638 55.23110916 -27.3093515 54.10674957 -27.31376648 52.94831848 C-27.31949871 50.57386955 -27.32001822 48.19940305 -27.31567383 45.82495117 C-27.31252004 42.21046633 -27.33596662 38.59680527 -27.36132812 34.98242188 C-27.36360198 32.66927186 -27.36430421 30.35611966 -27.36328125 28.04296875 C-27.372491 26.97080612 -27.38170074 25.89864349 -27.39118958 24.79399109 C-27.3478678 17.69261766 -26.88813923 10.55067451 -22.24609375 4.84375 C-21.64925781 4.4003125 -21.05242188 3.956875 -20.4375 3.5 C-19.83808594 3.0359375 -19.23867188 2.571875 -18.62109375 2.09375 C-13.24109495 -1.53612871 -6.21522566 -0.66119422 0 0 Z " fill="#04E020" transform="translate(83,12)"/>
<path d="M0 0 C3.38998782 2.47092446 5.87507217 5.51576934 7.7578125 9.28125 C7.86906621 11.08689367 7.91703834 12.8965859 7.93481445 14.70556641 C7.95406731 16.40841293 7.95406731 16.40841293 7.97370911 18.1456604 C7.98109604 19.37892059 7.98848297 20.61218079 7.99609375 21.8828125 C8.0041655 23.14837982 8.01223724 24.41394714 8.02055359 25.71786499 C8.03440777 28.4029304 8.04541912 31.0878725 8.05297852 33.77294922 C8.06400151 37.19594256 8.09834998 40.61827834 8.13815022 44.04104042 C8.17075608 47.32156534 8.17510863 50.60215026 8.18359375 53.8828125 C8.20110184 55.10392731 8.21860992 56.32504211 8.23664856 57.5831604 C8.21682543 65.40343569 7.4839271 71.1315168 2.07421875 77.15625 C-4.06563846 81.0945103 -10.12107307 81.20699488 -17.2421875 80.28125 C-21.27734877 79.2983261 -24.03877195 77.78359837 -26.65686035 74.51516724 C-30.69599654 67.85569057 -30.94461191 62.06432239 -30.8359375 54.3984375 C-30.83597778 53.18479523 -30.83601807 51.97115295 -30.83605957 50.72073364 C-30.8307211 48.16744783 -30.81321081 45.6141615 -30.78417969 43.06103516 C-30.7422415 39.16127161 -30.74312438 35.26323292 -30.75 31.36328125 C-30.73950924 28.87498805 -30.72657176 26.3867037 -30.7109375 23.8984375 C-30.71073608 22.73786835 -30.71053467 21.57729919 -30.71032715 20.38156128 C-30.60861027 13.40359038 -30.27481087 7.81344705 -25.55859375 2.3203125 C-24.97980469 1.85367187 -24.40101563 1.38703125 -23.8046875 0.90625 C-22.94037109 0.18308594 -22.94037109 0.18308594 -22.05859375 -0.5546875 C-15.57978973 -4.70669524 -6.41670163 -3.63699687 0 0 Z " fill="#04E020" transform="translate(272.2421875,14.71875)"/>
<path d="M0 0 C1.27765157 0.00032605 1.27765157 0.00032605 2.58111429 0.00065869 C4.05348858 -0.0062395 4.05348858 -0.0062395 5.5556078 -0.01327705 C7.18485762 -0.00556171 7.18485762 -0.00556171 8.84702158 0.0023095 C9.99479751 -0.00010491 11.14257344 -0.00251933 12.32513046 -0.00500691 C15.52064845 -0.00968298 18.71601075 -0.00533559 21.91151738 0.00275737 C25.35395632 0.00931796 28.79638079 0.00438948 32.23882151 0.00087517 C38.98636588 -0.00417456 45.73386136 0.00148449 52.48139966 0.01072548 C60.33259616 0.02109275 68.18378199 0.02103973 76.03498405 0.0205529 C90.03976374 0.02005189 104.04452063 0.02922422 118.04929209 0.04373711 C131.65118434 0.0578253 145.25305651 0.06490792 158.85495615 0.06424493 C160.11149041 0.06418499 160.11149041 0.06418499 161.39340919 0.06412385 C162.22962384 0.06408349 163.06583848 0.06404314 163.92739296 0.06400156 C179.39431373 0.0633123 194.86122593 0.06919844 210.32814392 0.07815478 C215.80600963 0.0811756 221.28387376 0.08223487 226.76174021 0.08268708 C233.43378669 0.08336813 240.10581874 0.08781767 246.77785909 0.09701989 C250.18462407 0.10164753 253.59137056 0.10467984 256.9981389 0.10342568 C260.68452441 0.10293825 264.37084953 0.10855848 268.05722666 0.11583489 C269.14339321 0.11428629 270.22955976 0.11273769 271.34864044 0.11114216 C272.3302233 0.1143666 273.31180615 0.11759105 274.32313395 0.12091321 C275.17490166 0.12161763 276.02666938 0.12232206 276.90424824 0.12304783 C278.95212412 0.24954766 278.95212412 0.24954766 280.95212412 1.24954766 C281.07712412 4.12454766 281.07712412 4.12454766 280.95212412 7.24954766 C278.46737477 9.73429701 277.74769851 9.49992445 274.32313395 9.50122994 C273.34155109 9.50644544 272.35996823 9.51166093 271.34864044 9.51703447 C270.26247389 9.51257303 269.17630734 9.50811158 268.05722666 9.50351495 C266.90945073 9.50663493 265.7616748 9.50975491 264.57911777 9.51296943 C261.38360402 9.51958834 258.18824097 9.51717657 254.99273086 9.510997 C251.55028778 9.50648761 248.10786569 9.51344871 244.66542673 9.51895684 C237.91788647 9.52786874 231.17039061 9.52592086 224.42284858 9.52013156 C218.94092959 9.51562212 213.45902307 9.51499905 207.97710276 9.51717919 C207.19807467 9.51748566 206.41904659 9.51779212 205.6164116 9.51810788 C204.03402912 9.5187473 202.45164665 9.51939573 200.86926419 9.52005306 C186.01730636 9.52576161 171.16537319 9.51919023 156.3134194 9.50845233 C143.55869794 9.49951634 130.80401289 9.50106823 118.04929209 9.51028985 C103.2519289 9.52098322 88.45458735 9.52521224 73.65722084 9.51906532 C72.08052906 9.5184282 70.50383727 9.51779945 68.92714548 9.51717919 C68.1513019 9.51687064 67.37545831 9.51656209 66.57610431 9.51624419 C61.09823362 9.51451444 55.6203766 9.51743836 50.14250803 9.5221383 C43.4704509 9.52773678 36.79844085 9.52625253 30.12638915 9.51557681 C26.71960283 9.51030611 23.31289513 9.50828697 19.90610933 9.51487511 C16.21966702 9.52029836 12.53344937 9.5135357 8.84702158 9.50351495 C7.76085503 9.50797639 6.67468848 9.51243783 5.5556078 9.51703447 C4.57402494 9.51181898 3.59244208 9.50660348 2.58111429 9.50122994 C1.72934658 9.50090524 0.87757886 9.50058053 0 9.50024599 C-2.04787588 9.24954766 -2.04787588 9.24954766 -4.04787588 7.24954766 C-4.29787588 4.74954766 -4.29787588 4.74954766 -4.04787588 2.24954766 C-2.04787588 0.24954766 -2.04787588 0.24954766 0 0 Z " fill="#F73851" transform="translate(5.047875881195068,149.7504523396492)"/>
<path d="M0 0 C0.98158286 -0.00521549 1.96316571 -0.01043099 2.9744935 -0.01580453 C4.06066005 -0.01134309 5.1468266 -0.00688164 6.26590729 -0.002285 C7.41368322 -0.00540498 8.56145915 -0.00852497 9.74401617 -0.01173949 C12.93952993 -0.01835839 16.13489297 -0.01594663 19.33040309 -0.00976706 C22.77284617 -0.00525767 26.21526825 -0.01221877 29.65770721 -0.0177269 C36.40524747 -0.0266388 43.15274334 -0.02469092 49.90028536 -0.01890162 C55.38220436 -0.01439218 60.86411087 -0.0137691 66.34603119 -0.01594925 C67.12505927 -0.01625572 67.90408735 -0.01656218 68.70672235 -0.01687793 C70.28910482 -0.01751736 71.87148729 -0.01816579 73.45386976 -0.01882312 C88.30582759 -0.02453167 103.15776076 -0.01796029 118.00971454 -0.00722238 C130.764436 0.00171361 143.51912106 0.00016171 156.27384186 -0.00905991 C171.07120504 -0.01975327 185.8685466 -0.0239823 200.66591311 -0.01783538 C202.24260489 -0.01719825 203.81929667 -0.01656951 205.39598846 -0.01594925 C206.17183205 -0.0156407 206.94767564 -0.01533215 207.74702963 -0.01501425 C213.22490032 -0.0132845 218.70275734 -0.01620841 224.18062592 -0.02090836 C230.85268304 -0.02650684 237.52469309 -0.02502259 244.1967448 -0.01434687 C247.60353111 -0.00907617 251.01023881 -0.00705703 254.41702461 -0.01364517 C258.10346692 -0.01906842 261.78968457 -0.01230576 265.47611237 -0.002285 C267.10536219 -0.00897717 267.10536219 -0.00897717 268.76752615 -0.01580453 C269.74910901 -0.01058903 270.73069186 -0.00537354 271.74201965 0 C273.01967123 0.00048706 273.01967123 0.00048706 274.32313395 0.00098395 C276.37100983 0.25168228 276.37100983 0.25168228 278.37100983 2.25168228 C278.62100983 4.75168228 278.62100983 4.75168228 278.37100983 7.25168228 C275.88626047 9.73643163 275.16658421 9.50205908 271.74201965 9.50336456 C270.7604368 9.50858006 269.77885394 9.51379555 268.76752615 9.51916909 C267.6813596 9.51470765 266.59519305 9.51024621 265.47611237 9.50564957 C264.32833643 9.50876955 263.1805605 9.51188953 261.99800348 9.51510406 C258.80248972 9.52172296 255.60712668 9.51931119 252.41161656 9.51313162 C248.96917348 9.50862223 245.5267514 9.51558333 242.08431244 9.52109146 C235.33677218 9.53000336 228.58927632 9.52805548 221.84173429 9.52226618 C216.3598153 9.51775674 210.87790878 9.51713367 205.39598846 9.51931381 C204.61696038 9.51962028 203.8379323 9.51992674 203.0352973 9.5202425 C201.45291483 9.52088192 199.87053236 9.52153035 198.28814989 9.52218768 C183.43619207 9.52789624 168.58425889 9.52132486 153.73230511 9.51058695 C140.97758365 9.50165096 128.2228986 9.50320285 115.4681778 9.51242447 C100.67081461 9.52311784 85.87347306 9.52734686 71.07610655 9.52119994 C69.49941477 9.52056282 67.92272298 9.51993408 66.34603119 9.51931381 C65.5701876 9.51900526 64.79434402 9.51869671 63.99499002 9.51837881 C58.51711933 9.51664906 53.03926231 9.51957298 47.56139374 9.52427292 C40.88933661 9.5298714 34.21732656 9.52838715 27.54527485 9.51771143 C24.13848854 9.51244073 20.73178084 9.51042159 17.32499504 9.51700974 C13.63855273 9.52243298 9.95233508 9.51567033 6.26590729 9.50564957 C5.17974074 9.51011101 4.09357419 9.51457245 2.9744935 9.51916909 C1.99291065 9.5139536 1.01132779 9.5087381 0 9.50336456 C-0.85176772 9.50303986 -1.70353543 9.50271515 -2.58111429 9.50238061 C-4.62899017 9.25168228 -4.62899017 9.25168228 -6.62899017 7.25168228 C-6.87899017 4.75168228 -6.87899017 4.75168228 -6.62899017 2.25168228 C-4.14424082 -0.23306707 -3.42456456 0.00130549 0 0 Z " fill="#F93853" transform="translate(7.628990173339844,101.74831771850586)"/>
<path d="M0 0 C1.30453125 -0.03738281 2.6090625 -0.07476562 3.953125 -0.11328125 C9.47310537 0.50572889 12.45410792 2.84148737 16.0625 6.9375 C19.13416581 11.26058522 18.86686866 14.78502421 18.8125 19.9375 C18.80798828 20.73929688 18.80347656 21.54109375 18.79882812 22.3671875 C18.78703168 24.34899006 18.76909605 26.33075433 18.75 28.3125 C15.12 28.3125 11.49 28.3125 7.75 28.3125 C7.72421875 27.49265625 7.6984375 26.6728125 7.671875 25.828125 C7.61515625 24.75046875 7.5584375 23.6728125 7.5 22.5625 C7.45359375 21.49515625 7.4071875 20.4278125 7.359375 19.328125 C6.6360302 15.74849562 5.61118537 14.51909683 2.75 12.3125 C0.16482413 11.81190084 0.16482413 11.81190084 -2.25 12.3125 C-4.82280076 14.88530076 -4.50277537 15.87438548 -4.50878906 19.44897461 C-4.51509338 20.52026108 -4.52139771 21.59154755 -4.52789307 22.69529724 C-4.5238446 23.85674759 -4.51979614 25.01819794 -4.515625 26.21484375 C-4.51849518 27.99780602 -4.51849518 27.99780602 -4.52142334 29.81678772 C-4.52278641 32.33448498 -4.51908154 34.85218923 -4.51074219 37.36987305 C-4.50005408 41.23046633 -4.51062884 45.09059324 -4.5234375 48.95117188 C-4.52211574 51.3932302 -4.51955301 53.83528823 -4.515625 56.27734375 C-4.51967346 57.43676987 -4.52372192 58.59619598 -4.52789307 59.79075623 C-4.52158875 60.86519485 -4.51528442 61.93963348 -4.50878906 63.04663086 C-4.50719788 63.99324081 -4.50560669 64.93985077 -4.50396729 65.91514587 C-4.40956998 68.5757679 -4.40956998 68.5757679 -2.25 71.3125 C0.75 71.72916667 0.75 71.72916667 3.75 71.3125 C6.77093215 68.29156785 6.21676834 64.74877928 6.375 60.6875 C6.41367188 59.88570312 6.45234375 59.08390625 6.4921875 58.2578125 C6.58653931 56.27642444 6.66936215 54.29449355 6.75 52.3125 C11.04 52.3125 15.33 52.3125 19.75 52.3125 C20.56080852 70.66830408 20.56080852 70.66830408 15.75 77.3125 C12.51952262 80.71603866 9.4733774 83.19760817 4.703125 83.515625 C3.48109375 83.53109375 2.2590625 83.5465625 1 83.5625 C-0.81757812 83.60117188 -0.81757812 83.60117188 -2.671875 83.640625 C-7.68334818 83.18105759 -10.95412033 81.60837967 -14.5 78.0625 C-18.92432556 71.10998841 -18.55714513 63.83847221 -18.55078125 55.84375 C-18.55506638 54.64947388 -18.5593515 53.45519775 -18.56376648 52.22473145 C-18.5694943 49.70663078 -18.57002149 47.18851358 -18.56567383 44.67041016 C-18.56251074 40.8255589 -18.58600456 36.98147518 -18.61132812 33.13671875 C-18.613601 30.6848968 -18.61430467 28.23307279 -18.61328125 25.78125 C-18.622491 24.63628052 -18.63170074 23.49131104 -18.64118958 22.31164551 C-18.60210759 15.54771307 -18.38424212 9.86942617 -13.71484375 4.5703125 C-8.6929651 0.84564547 -6.28925114 0.11715272 0 0 Z " fill="#02DF20" transform="translate(127.25,11.6875)"/>
<path d="M0 0 C5.83719251 6.30965457 6.12231884 11.6823192 6 20 C2.04 20 -1.92 20 -6 20 C-6.103125 18.741875 -6.20625 17.48375 -6.3125 16.1875 C-6.64065065 13.68202542 -6.88788577 12.18882396 -8.1875 10 C-10.90973344 8.4980781 -12.95687263 8.61151566 -16 9 C-18.43468836 12.65203254 -18.69149944 15.75434213 -18 20 C-15.47202242 26.83132874 -10.05489359 31.10671182 -4.89257812 35.99023438 C1.49031087 42.16016322 5.59649873 47.55336337 6.16796875 56.68359375 C6.2258269 64.84159245 5.13055429 70.40357305 0 77 C-4.12082587 80.13508875 -7.32212684 80.4059086 -12.4375 80.375 C-14.35369141 80.38660156 -14.35369141 80.38660156 -16.30859375 80.3984375 C-20.8956785 79.90332359 -24.18381058 78.61774592 -27.64453125 75.53515625 C-32.93314722 68.86690134 -32.09026827 63.30468041 -32 55 C-28.04 55 -24.08 55 -20 55 C-19.8046875 57.50651042 -19.609375 60.01302083 -19.4140625 62.51953125 C-19.13354964 65.24398499 -19.13354964 65.24398499 -17 68 C-12.90986457 68.53039139 -12.90986457 68.53039139 -9.3359375 66.7734375 C-6.72961756 63.31358588 -7.47006398 59.11331288 -8 55 C-10.42440461 48.53492105 -15.20055618 44.97890982 -20.3046875 40.48046875 C-26.77882156 34.52238885 -31.34576347 27.97697574 -32.31640625 19.109375 C-32.57176507 12.55241951 -31.98311981 7.34949747 -28 2 C-20.83855148 -4.98241231 -8.33237837 -5.27150468 0 0 Z " fill="#02E020" transform="translate(38,15)"/>
<path d="M0 0 C3.03061995 0.45459299 3.68801033 0.94029839 5.5 3.375 C6.01171875 6.29296875 6.01171875 6.29296875 6.1875 9.5625 C6.25324219 10.64917969 6.31898438 11.73585938 6.38671875 12.85546875 C6.42410156 13.68691406 6.46148437 14.51835938 6.5 15.375 C7.49 14.715 8.48 14.055 9.5 13.375 C13.50811181 13.65807692 15.63759627 14.95013774 18.5625 17.625 C19.21347656 18.20765625 19.86445313 18.7903125 20.53515625 19.390625 C21.18355469 20.04546875 21.83195312 20.7003125 22.5 21.375 C23.19101807 22.06086182 23.88203613 22.74672363 24.59399414 23.45336914 C27.18703387 27.4281234 27.04445506 30.46134832 26.9609375 35.10546875 C26.95956284 36.35291618 26.95956284 36.35291618 26.9581604 37.62556458 C26.95213714 39.37632993 26.93642945 41.1270856 26.91162109 42.87768555 C26.87497923 45.56402284 26.87060283 48.2489851 26.87109375 50.93554688 C26.86126708 52.63803281 26.84961204 54.34050938 26.8359375 56.04296875 C26.83371185 56.84816452 26.83148621 57.65336029 26.82919312 58.48295593 C26.7321909 64.1428091 26.7321909 64.1428091 24.5 66.375 C21.93359375 66.60546875 21.93359375 66.60546875 18.9375 66.5625 C17.94621094 66.55605469 16.95492187 66.54960938 15.93359375 66.54296875 C13.5 66.375 13.5 66.375 12.5 65.375 C12.41241997 63.37535018 12.39303424 61.3726389 12.40234375 59.37109375 C12.40556641 58.15615234 12.40878906 56.94121094 12.41210938 55.68945312 C12.42048828 54.41005859 12.42886719 53.13066406 12.4375 51.8125 C12.44201172 50.52923828 12.44652344 49.24597656 12.45117188 47.92382812 C12.46300455 44.74083978 12.47948932 41.55794238 12.5 38.375 C11.90598389 38.10171875 11.31196777 37.8284375 10.69995117 37.546875 C8.57195939 36.41333149 7.06120545 35.25684003 5.30078125 33.625 C4.73166016 33.0990625 4.16253906 32.573125 3.57617188 32.03125 C2.99416016 31.4846875 2.41214844 30.938125 1.8125 30.375 C0.92208008 29.55515625 0.92208008 29.55515625 0.01367188 28.71875 C-5.38974876 23.69116592 -5.38974876 23.69116592 -5.66113281 20.45141602 C-5.7064206 17.94663259 -5.73525293 15.44265836 -5.75 12.9375 C-5.770625 12.06544922 -5.79125 11.19339844 -5.8125 10.29492188 C-5.81765625 9.45638672 -5.8228125 8.61785156 -5.828125 7.75390625 C-5.8374707 6.9863501 -5.84681641 6.21879395 -5.85644531 5.42797852 C-5.23712032 1.8609211 -3.4897396 0.52346094 0 0 Z " fill="#F53751" transform="translate(163.5,29.625)"/>
<path d="M0 0 C3.84972977 3.84972977 2.99972989 10.05017662 3.14794922 15.24462891 C2.94681169 21.99207865 1.53520197 25.77876877 -3.27172852 30.54980469 C-11.85699238 38 -11.85699238 38 -15 38 C-15 47.24 -15 56.48 -15 66 C-18.96 66 -22.92 66 -27 66 C-31.02137496 61.97862504 -29.66898728 53.31217504 -29.75512695 47.79077148 C-29.79305049 45.98738629 -29.85418076 44.18432397 -29.93969727 42.38256836 C-30.71807907 25.84766718 -30.71807907 25.84766718 -25.29972839 19.74546814 C-21.20348796 15.75648508 -17.84593369 13.21887499 -12 13 C-11.01 13.66 -10.02 14.32 -9 15 C-8.96261719 14.16855469 -8.92523438 13.33710937 -8.88671875 12.48046875 C-8.82097656 11.39378906 -8.75523437 10.30710937 -8.6875 9.1875 C-8.62949219 8.10855469 -8.57148438 7.02960937 -8.51171875 5.91796875 C-8 3 -8 3 -6.6171875 1.1328125 C-4.32198294 -0.47493948 -2.73446195 -0.35057204 0 0 Z " fill="#F63851" transform="translate(225,30)"/>
<path d="M0 0 C7.06301706 2.23212906 11.99928098 8.87764232 15.4921875 15.12109375 C17.78323876 20.89487861 17.36937307 26.3762558 15.43359375 32.18359375 C12.13284031 36.80464856 8.10051455 40.32173695 2.55859375 41.80859375 C-2.70550585 42.28714826 -6.01486508 41.72822729 -10.44140625 38.80859375 C-14.96614959 34.33670956 -17.5446076 30.75880746 -17.81640625 24.24609375 C-17.71336894 16.39236117 -14.2167418 10.34651747 -8.81640625 4.80859375 C-3.42220566 -0.26830092 -3.42220566 -0.26830092 0 0 Z " fill="#1E1617" transform="translate(193.44140625,2.19140625)"/>
<path d="M0 0 C3.375 0.875 3.375 0.875 5.375 2.875 C5.64242554 5.13864136 5.64242554 5.13864136 5.66552734 7.99560547 C5.6846669 9.59769363 5.6846669 9.59769363 5.70419312 11.23214722 C5.70641876 12.39046051 5.70864441 13.5487738 5.7109375 14.7421875 C5.7175943 15.92845734 5.7242511 17.11472717 5.73110962 18.33694458 C5.74125071 20.85042771 5.74592619 23.36393784 5.74560547 25.87744141 C5.74997428 29.72733907 5.78626888 33.57608694 5.82421875 37.42578125 C5.83008736 39.8645794 5.83405646 42.30338301 5.8359375 44.7421875 C5.85030853 45.89645233 5.86467957 47.05071716 5.87948608 48.23995972 C5.87333282 49.31432281 5.86717957 50.38868591 5.86083984 51.49560547 C5.86368988 52.43999481 5.86653992 53.38438416 5.86947632 54.35739136 C5.22411984 57.64320097 3.97913956 58.83241285 1.375 60.875 C-1.6875 61.375 -1.6875 61.375 -4.625 60.875 C-7.52893025 57.89328853 -8.00502617 55.71292736 -8.02905273 51.61914062 C-8.04173691 50.57125366 -8.05442108 49.5233667 -8.06748962 48.44372559 C-8.06455399 47.31760864 -8.06161835 46.1914917 -8.05859375 45.03125 C-8.0638356 43.8700061 -8.06907745 42.70876221 -8.07447815 41.5123291 C-8.08089982 39.05786946 -8.07955952 36.60337905 -8.07104492 34.14892578 C-8.06253191 30.3890927 -8.09130194 26.63077683 -8.12304688 22.87109375 C-8.12465885 20.48697962 -8.12408144 18.1028628 -8.12109375 15.71875 C-8.13232773 14.59263306 -8.14356171 13.46651611 -8.15513611 12.30627441 C-8.14575516 11.25838745 -8.13637421 10.21050049 -8.12670898 9.13085938 C-8.12654282 8.21026733 -8.12637665 7.28967529 -8.12620544 6.34118652 C-7.14340678 1.50531563 -4.79270274 -0.16526561 0 0 Z " fill="#151815" transform="translate(76.625,23.125)"/>
<path d="M0 0 C1.97265625 0.4609375 1.97265625 0.4609375 3.57069397 2.16699219 C5.23390304 4.88839969 5.35773568 6.45460148 5.37670898 9.625 C5.38939316 10.65286621 5.40207733 11.68073242 5.41514587 12.73974609 C5.41221024 13.84398926 5.4092746 14.94823242 5.40625 16.0859375 C5.41149185 17.22498535 5.4167337 18.3640332 5.4221344 19.53759766 C5.42855565 21.94497869 5.42721631 24.35239109 5.41870117 26.75976562 C5.41018801 30.44718122 5.43895881 34.13304984 5.47070312 37.8203125 C5.4723151 40.1588537 5.47173768 42.49739765 5.46875 44.8359375 C5.48560097 46.49230225 5.48560097 46.49230225 5.50279236 48.18212891 C5.49341141 49.20999512 5.48403046 50.23786133 5.47436523 51.296875 C5.47411598 52.65111572 5.47411598 52.65111572 5.47386169 54.03271484 C4.81015236 57.24823068 3.51702894 58.44846004 0.97265625 60.4609375 C-2.08984375 60.9609375 -2.08984375 60.9609375 -5.02734375 60.4609375 C-7.98163164 57.44488192 -8.40242246 55.22903907 -8.3996582 51.08154297 C-8.40588699 50.00717987 -8.41211578 48.93281677 -8.41853333 47.82589722 C-8.40932358 46.67163239 -8.40011383 45.51736755 -8.390625 44.328125 C-8.3911235 43.13994171 -8.39162201 41.95175842 -8.39213562 40.72756958 C-8.38979596 38.21761399 -8.38007384 35.70765603 -8.36352539 33.19775391 C-8.33989236 29.34386369 -8.34297058 25.4906632 -8.34960938 21.63671875 C-8.34403411 19.20051669 -8.33692518 16.76431755 -8.328125 14.328125 C-8.32903641 13.16981171 -8.32994781 12.01149841 -8.33088684 10.81808472 C-8.32135483 9.75002594 -8.31182281 8.68196716 -8.30200195 7.58154297 C-8.29739456 6.63874481 -8.29278717 5.69594666 -8.28804016 4.72457886 C-7.70953907 -0.29857815 -4.30685828 0.17710445 0 0 Z " fill="#151C15" transform="translate(263.02734375,23.5390625)"/>
<path d="M0 0 C0.66 -0.02191406 1.32 -0.04382813 2 -0.06640625 C5.31491289 0.97597847 6.27425721 2.58236267 8 5.5625 C8.5222127 8.76675302 8.46872218 11.88665198 8.375 15.125 C8.37371094 15.97513672 8.37242187 16.82527344 8.37109375 17.70117188 C8.31216972 21.87495703 8.24351506 24.9263386 6 28.5625 C3.68566978 29.71966511 2.13939188 29.79460436 -0.4375 29.875 C-1.61119141 29.93107422 -1.61119141 29.93107422 -2.80859375 29.98828125 C-5 29.5625 -5 29.5625 -6.60986328 27.83862305 C-9.04291225 23.85490061 -8.47148017 19.61584313 -8.4375 15.0625 C-8.45748047 14.11246094 -8.47746094 13.16242188 -8.49804688 12.18359375 C-8.49319894 5.28983295 -8.49319894 5.28983295 -6.22265625 1.94140625 C-3.91479732 0.5096414 -2.69243476 -0.00525866 0 0 Z " fill="#EC3951" transform="translate(191,115.4375)"/>
<path d="M0 0 C7.06301706 2.23212906 11.99928098 8.87764232 15.4921875 15.12109375 C17.78323876 20.89487861 17.36937307 26.3762558 15.43359375 32.18359375 C12.13284031 36.80464856 8.10051455 40.32173695 2.55859375 41.80859375 C-2.70550585 42.28714826 -6.01486508 41.72822729 -10.44140625 38.80859375 C-14.96614959 34.33670956 -17.5446076 30.75880746 -17.81640625 24.24609375 C-17.71336894 16.39236117 -14.2167418 10.34651747 -8.81640625 4.80859375 C-3.42220566 -0.26830092 -3.42220566 -0.26830092 0 0 Z M-7.3984375 8.6796875 C-11.57894356 13.03604658 -14.12821001 17.49877145 -14.94140625 23.49609375 C-14.0887651 29.14484138 -11.93524603 33.34952332 -7.30859375 36.8828125 C-3.43590182 38.80295473 0.40284404 38.74084724 4.55859375 37.80859375 C8.30913743 35.73031083 10.74279864 33.06627788 13.05859375 29.49609375 C14.21508978 23.27992757 13.26621147 18.40523583 9.87109375 13.05859375 C7.14451148 9.30707935 4.34739827 6.47797875 0.55859375 3.80859375 C-2.89760852 3.80859375 -4.92583611 6.4502928 -7.3984375 8.6796875 Z " fill="#EA374F" transform="translate(193.44140625,2.19140625)"/>
<path d="M0 0 C10 0 10 0 13.125 1.5625 C15.67222913 4.87389788 15.51940701 6.91894494 15 11 C14.01 12.485 14.01 12.485 13 14 C13.28076792 17.30476048 13.28076792 17.30476048 14 21 C14.19637948 22.478014 14.38402618 23.95721713 14.5625 25.4375 C14.706875 26.613125 14.85125 27.78875 15 29 C13.68 29 12.36 29 11 29 C10.01 24.71 9.02 20.42 8 16 C7.01 16 6.02 16 5 16 C5 20.29 5 24.58 5 29 C3.35 29 1.7 29 0 29 C0 19.43 0 9.86 0 0 Z " fill="#DC364C" transform="translate(231,116)"/>
<path d="M0 0 C1.32 0 2.64 0 4 0 C4 3.96 4 7.92 4 12 C6.31 12 8.62 12 11 12 C11 8.04 11 4.08 11 0 C12.32 0 13.64 0 15 0 C15 9.57 15 19.14 15 29 C13.68 29 12.36 29 11 29 C11 24.71 11 20.42 11 16 C8.69 16 6.38 16 4 16 C4 20.29 4 24.58 4 29 C2.68 29 1.36 29 0 29 C0 19.43 0 9.86 0 0 Z " fill="#E73850" transform="translate(135,116)"/>
<path d="M0 0 C2.53301531 0.04993399 3.86807975 0.11351112 6.125 1.3125 C7.65190415 4.27087678 7.30968872 6.98716599 7.125 10.25 C5.805 10.25 4.485 10.25 3.125 10.25 C2.795 8.27 2.465 6.29 2.125 4.25 C0.475 4.58 -1.175 4.91 -2.875 5.25 C-2.90189449 8.20839355 -2.92178741 11.16654427 -2.9375 14.125 C-2.94587891 14.96675781 -2.95425781 15.80851563 -2.96289062 16.67578125 C-2.96772461 17.88427734 -2.96772461 17.88427734 -2.97265625 19.1171875 C-2.98051147 20.23262939 -2.98051147 20.23262939 -2.98852539 21.37060547 C-2.99286636 23.34132568 -2.99286636 23.34132568 -1.875 25.25 C-0.555 25.25 0.765 25.25 2.125 25.25 C2.455 22.94 2.785 20.63 3.125 18.25 C4.445 18.25 5.765 18.25 7.125 18.25 C7.32466912 21.71093134 7.45261013 24.4514503 6.125 27.6875 C3.57446279 29.6801072 1.34169148 29.77469411 -1.83984375 29.87890625 C-5.15976598 28.85298019 -6.13721512 27.21648301 -7.875 24.25 C-8.41737194 21.2320745 -8.38945032 18.30815483 -8.3125 15.25 C-8.31958984 14.4559375 -8.32667969 13.661875 -8.33398438 12.84375 C-8.26392055 6.37631985 -7.29052052 0.47035616 0 0 Z " fill="#E7374F" transform="translate(94.875,115.75)"/>
<path d="M0 0 C4.55555556 0.55555556 4.55555556 0.55555556 6 2 C6.24966567 5.1382345 6.18521791 8.29049613 6.1875 11.4375 C6.19974609 12.32244141 6.21199219 13.20738281 6.22460938 14.11914062 C6.22750977 15.38854492 6.22750977 15.38854492 6.23046875 16.68359375 C6.23457764 17.46275146 6.23868652 18.24190918 6.24291992 19.04467773 C6 21 6 21 4 23 C-0.55555556 22.44444444 -0.55555556 22.44444444 -2 21 C-2.24966567 17.8617655 -2.18521791 14.70950387 -2.1875 11.5625 C-2.19974609 10.67755859 -2.21199219 9.79261719 -2.22460938 8.88085938 C-2.22654297 8.03458984 -2.22847656 7.18832031 -2.23046875 6.31640625 C-2.23457764 5.53724854 -2.23868652 4.75809082 -2.24291992 3.95532227 C-2 2 -2 2 0 0 Z " fill="#211618" transform="translate(189,119)"/>
<path d="M0 0 C9.24 0 18.48 0 28 0 C28 0.99 28 1.98 28 3 C21.57599308 7.89448146 14.88084911 8.00433324 7 7 C3.62890625 5.72265625 3.62890625 5.72265625 1 4 C0.67 2.68 0.34 1.36 0 0 Z " fill="#11E223" transform="translate(62,88)"/>
<path d="M0 0 C9.24 0 18.48 0 28 0 C27 4 27 4 24.90234375 5.7265625 C21.28424414 7.31404631 18.50621026 7.39882907 14.5625 7.375 C12.64630859 7.38660156 12.64630859 7.38660156 10.69140625 7.3984375 C6.73921432 6.9718517 4.30165077 6.20110051 1 4 C0.67 2.68 0.34 1.36 0 0 Z " fill="#11E123" transform="translate(11,88)"/>
<path d="M0 0 C9.24 0 18.48 0 28 0 C28 1.32 28 2.64 28 4 C24.19847246 7.17632357 20.9054453 7.40655013 16.0625 7.375 C14.87785156 7.38273437 13.69320312 7.39046875 12.47265625 7.3984375 C8.62929272 6.95746666 6.26590017 6.05338247 3 4 C2.01 2.68 1.02 1.36 0 0 Z " fill="#11E223" transform="translate(112,88)"/>
<path d="M0 0 C1.32 0 2.64 0 4 0 C4 9.57 4 19.14 4 29 C2.68 29 1.36 29 0 29 C0 19.43 0 9.86 0 0 Z " fill="#DF384E" transform="translate(50,116)"/>
<path d="M0 0 C1.32 0 2.64 0 4 0 C4 1.32 4 2.64 4 4 C5.65 4.33 7.3 4.66 9 5 C9 5.99 9 6.98 9 8 C7.35 8 5.7 8 4 8 C4 9.65 4 11.3 4 13 C2.68 13 1.36 13 0 13 C0 11.35 0 9.7 0 8 C-1.65 8 -3.3 8 -5 8 C-5 7.01 -5 6.02 -5 5 C-3.35 5 -1.7 5 0 5 C0 3.35 0 1.7 0 0 Z " fill="#DF364D" transform="translate(191,20)"/>
<path d="M0 0 C4.875 0.875 4.875 0.875 6 2 C6.1875 4.4375 6.1875 4.4375 6 7 C5.34 7.66 4.68 8.32 4 9 C2.68 9 1.36 9 0 9 C0 6.03 0 3.06 0 0 Z " fill="#1A1516" transform="translate(236,119)"/>
</svg>
